{"title":"Vikingdom HDRip.mp4","uid":9041069,"size":812290466,"categoryP":"video","categoryS":"movies","magnet":"?xt=urn:btih:636563f5e195e97bb6468a1f7d938b320bd344ac&amp;dn=Vikingdom+HDRip.mp4&amp;tr=udp%3A%2F%2Ftracker.openbittorrent.com%3A80&amp;tr=udp%3A%2F%2Fopen.demonii.com%3A1337&amp;tr=udp%3A%2F%2Ftracker.coppersurfer.tk%3A6969&amp;tr=udp%3A%2F%2Fexodus.desync.com%3A6969","seeders":0,"leechers":1,"uploader":"globeplus","files":-1,"time":1381620636,"description":"Vikingdom HDRip.mp4 - 16 CHAPTERS DVD IN EXCELLENT QUALITY\n\nFormat                                   : MPEG-4\nFormat profile                           : Base Media\nCodec ID                                 : isom\nFile size                                : 775 MiB\nDuration                                 : 1h 54mn\nOverall bit rate                         : 946 Kbps\nWriting application                      : Lavf54.32.101\n\nVideo\nID                                       : 1\nFormat                                   : AVC\nFormat/Info                              : Advanced Video Codec\nFormat profile                           : &lt;a class=&quot;__cf_email__&quot; href=&quot;/cdn-cgi/l/email-protection&quot; data-cfemail=&quot;1d55747a755d512e332d&quot;&gt;[email&amp;#160;protected]&lt;/a&gt;&lt;script cf-hash='f9e31' type=&quot;text/javascript&quot;&gt;\n/* &lt;![CDATA[ */!function(){try{var t=&quot;currentScript&quot;in document?document.currentScript:function(){for(var t=document.getElementsByTagName(&quot;script&quot;),e=t.length;e--;)if(t[e].getAttribute(&quot;cf-hash&quot;))return t[e]}();if(t&amp;&amp;t.previousSibling){var e,r,n,i,c=t.previousSibling,a=c.getAttribute(&quot;data-cfemail&quot;);if(a){for(e=&quot;&quot;,r=parseInt(a.substr(0,2),16),n=2;a.length-n;n+=2)i=parseInt(a.substr(n,2),16)^r,e+=String.fromCharCode(i);e=document.createTextNode(e),c.parentNode.replaceChild(e,c)}}}catch(u){}}();/* ]]&gt; */&lt;/script&gt;\nFormat settings, CABAC                   : Yes\nFormat settings, ReFrames                : 4 frames\nCodec ID                                 : avc1\nCodec ID/Info                            : Advanced Video Coding\nDuration                                 : 1h 54mn\nBit rate mode                            : Variable\nBit rate                                 : 842 Kbps\nWidth                                    : 720 pixels\nHeight                                   : 384 pixels\nDisplay aspect ratio                     : 1.85:1\nFrame rate mode                          : Constant\nFrame rate                               : 23.810 fps\nColor space                              : YUV\nChroma subsampling                       : 4:2:0\nBit depth                                : 8 bits\nScan type                                : Progressive\nBits/(Pixel*Frame)                       : 0.128\nStream size                              : 689 MiB (89%)\n\n\nAudio\n\nID                                       : 2\nFormat                                   : AAC\nFormat/Info                              : Advanced Audio Codec\nFormat profile                           : LC\nCodec ID                                 : 40\nDuration                                 : 1h 54mn\nBit rate mode                            : Constant\nBit rate                                 : 96.0 Kbps\nChannel(s)                               : 2 channels\nChannel positions                        : Front: L R\nSampling rate                            : 48.0 KHz\nCompression mode                         : Lossy\nDelay relative to video                  : 84ms\nStream size                              : 79.9 MiB (10%)\nLanguage                                 : English\n\nMenu\n00:00:00.000                             : Chapter 1\n00:09:09.090                             : Chapter 2\n00:16:37.122                             : Chapter 3\n00:20:23.098                             : Chapter 4\n00:30:20.153                             : Chapter 5\n00:35:38.138                             : Chapter 6\n00:42:11.156                             : Chapter 7\n00:47:48.159                             : Chapter 8\n00:58:23.086                             : Chapter 9\n01:02:21.157                             : Chapter 10\n01:08:26.147                             : Chapter 11\n01:16:14.157                             : Chapter 12\n01:22:59.104                             : Chapter 13\n01:29:38.086                             : Chapter 14\n01:36:15.150                             : Chapter 15\n01:47:49.135                             : Chapter 16\n\n\nSTORY\n\nA forgotten king, Eirick, is tasked with the impossible odds to defeat Thor, the God of Thunder. \n\n\n\n\n* enjoy ...","torrent":{"xt":"urn:btih:636563f5e195e97bb6468a1f7d938b320bd344ac","amp;dn":"Vikingdom+HDRip.mp4","amp;tr":["udp%3A%2F%2Ftracker.openbittorrent.com%3A80","udp%3A%2F%2Fopen.demonii.com%3A1337","udp%3A%2F%2Ftracker.coppersurfer.tk%3A6969","udp%3A%2F%2Fexodus.desync.com%3A6969"],"infoHash":"636563f5e195e97bb6468a1f7d938b320bd344ac","infoHashBuffer":{"type":"Buffer","data":[99,101,99,245,225,149,233,123,182,70,138,31,125,147,139,50,11,211,68,172]},"announce":[],"urlList":[]}}